<?xml version="1.0" encoding="UTF-8" standalone="no"?>
<!-- Created with Inkscape (http://www.inkscape.org/) -->

<svg
   width="79.379951mm"
   height="87.877991mm"
   viewBox="0 0 79.379951 87.877991"
   version="1.1"
   id="svg1"
   xml:space="preserve"
   xmlns="http://www.w3.org/2000/svg"
   xmlns:svg="http://www.w3.org/2000/svg"><defs
     id="defs1" /><g
     id="layer1"
     transform="translate(-0.48898624,-0.52349494)"><path
       style="fill:#0096a0;fill-opacity:1"
       d="M 6.4240121,63.452382 C -0.79903989,51.886442 -1.4869799,36.224884 4.6776681,23.695334 19.870376,-7.1836075 64.397713,-7.2052485 79.055163,23.659234 c 1.2083,2.54432 1.07215,2.75556 -0.41596,0.64541 -25.96236,-36.814586 -85.4105149,-6.64335 -72.4997879,36.795218 0.838551,2.82132 0.901301,3.34007 0.284597,2.35257 z"
       id="path3" /><path
       style="fill:#ff6e14;fill-opacity:1"
       d="M 40.665333,76.217452 C 15.372126,69.641732 7.0274561,38.166844 25.741536,19.926974 37.522613,8.4444235 55.678893,7.9566635 69.101163,18.762134 l 0.65457,0.52696 -4.10875,-0.14996 c -30.39845,-1.10949 -46.310537,33.590378 -25.18545,54.922508 1.34902,1.36224 2.45276,2.52312 2.45276,2.57973 0,0.14748 -0.18583,0.11245 -2.24896,-0.42392 z"
       id="path2" /><path
       style="fill:#73b400;fill-opacity:1"
       d="M 38.511043,87.988172 C 15.086316,84.322322 1.5601841,58.492422 11.714456,36.816644 c 1.29023,-2.75419 1.42404,-2.66338 0.76208,0.51714 -4.5558799,21.889698 11.71035,42.432598 34.274217,43.285468 2.95043,0.11152 3.74483,0.2412 5.58601,0.91186 2.5061,0.91287 5.29802,1.54398 6.98169,1.57821 0.65485,0.0133 1.72641,0.10496 2.38125,0.20366 l 1.19063,0.17945 -2.11667,1.09738 c -6.24823,3.23938 -14.8693,4.55537 -22.26262,3.39836 z"
       id="path1" /></g></svg>
